<svg height="511pt" viewBox="0 -45 511.99923 511" width="511pt" xmlns="http://www.w3.org/2000/svg"><path d="m240.449219 340.105469c-4.140625 0-7.5 3.359375-7.5 7.5v12.449219c0 4.144531 3.359375 7.5 7.5 7.5 4.144531 0 7.5-3.355469 7.5-7.5v-12.449219c0-4.140625-3.355469-7.5-7.5-7.5zm0 0"/><path d="m145.628906 340.105469c-4.140625 0-7.5 3.359375-7.5 7.5v12.449219c0 4.144531 3.359375 7.5 7.5 7.5 4.144532 0 7.5-3.355469 7.5-7.5v-12.449219c.003906-4.140625-3.355468-7.5-7.5-7.5zm0 0"/><path d="m208.550781 350.414062c-1.269531-.835937-6.882812-2.996093-10.386719 2.148438-1.683593 2.46875-4.128906 2.765625-5.125 2.765625-.992187 0-3.484374-.269531-5.121093-2.765625-2.277344-3.460938-6.925781-4.425781-10.386719-2.148438-3.464844 2.273438-4.425781 6.921876-2.152344 10.382813 3.921875 5.96875 10.523438 9.53125 17.660156 9.53125 7.140626 0 13.742188-3.5625 17.660157-9.53125 2.277343-3.460937 1.3125-8.109375-2.148438-10.382813zm0 0"/><path d="m158.550781 271.972656c3.65625 1.9375 8.199219.546875 10.140625-3.113281s.546875-8.199219-3.113281-10.140625c-5.539063-2.933594-8.84375-6.597656-8.84375-9.796875 0-3.203125 3.304687-6.863281 8.84375-9.800781 7.105469-3.769532 17.117187-5.929688 27.460937-5.929688 10.347657 0 20.355469 2.160156 27.464844 5.929688 5.535156 2.9375 8.84375 6.597656 8.84375 9.800781 0 3.199219-3.308594 6.863281-8.84375 9.796875-7.109375 3.769531-17.117187 5.933594-27.464844 5.933594-4.140624 0-7.5 3.355468-7.5 7.5 0 4.140625 3.359376 7.5 7.5 7.5 29.25 0 51.308594-13.214844 51.308594-30.730469 0-17.519531-22.058594-30.730469-51.308594-30.730469s-51.308593 13.210938-51.308593 30.730469c0 9.113281 5.972656 17.296875 16.820312 23.050781zm0 0"/><path d="m482.367188 158.808594c-34.902344-23.71875-75.65625-36.257813-117.859376-36.257813-10.78125 0-21.464843.824219-31.980468 2.4375l43.457031-33.503906c11.109375-8.5625 13.40625-24.199219 5.234375-35.59375-8.175781-11.398437-23.722656-14.234375-35.398438-6.460937l-25.609374 17.0625 17.679687-25.1875c8.058594-11.476563 5.601563-27.089844-5.59375-35.539063-11.191406-8.453125-26.882813-6.535156-35.714844 4.359375l-127.0625 156.742188-32.871093 21.894531c-21.507813 6.226562-40.503907 23.117187-46.3125 30.851562l-72.707032 48.429688c-9.003906 5.996093-15.03125 15.160156-16.972656 25.800781-1.941406 10.644531.460938 21.34375 6.765625 30.132812 6.304687 8.792969 16.359375 16.128907 32.007813 16.492188-.3125 12.53125 5.359374 24.574219 15.726562 32.417969 15.371094 11.632812 30.390625 7.574219 33.652344 6.734375 5.867187 8.566406 14.570312 16.351562 25.820312 22.933594 21.0625 12.320312 48.910156 19.105468 78.410156 19.105468s57.347657-6.785156 78.414063-19.105468c14.058594-8.222657 24.136719-18.328126 29.675781-29.492188 4.09375 1.453125 20.730469 7.117188 35.433594-5.136719 1.546875-1.289062 3.726562-1.1875 5.351562 0 6.597657 4.816407 14.410157 7.363281 22.59375 7.363281 8.183594 0 15.996094-2.546874 22.589844-7.363281 1.628906-1.1875 3.726563-1.183593 5.355469 0 6.59375 4.816407 14.40625 7.363281 22.59375 7.363281 15.125 0 28.878906-8.925781 35.046875-22.742187.714844-1.605469 2.226562-2.644531 3.941406-2.707031 10.941406-.410156 21.207032-5.480469 28.167969-13.917969 6.902344-8.367187 9.945313-19.324219 8.34375-30.0625-.25-1.683594.457031-3.335937 1.890625-4.417969 9.597656-7.257812 15.15625-18.3125 15.242188-30.328125.050781-7.25-2.027344-14.308593-5.933594-20.429687 19.15625-30.667969 10.78125-71.378906-19.378906-91.875zm-115.28125-21.234375c6.621093 14.929687 9.324218 31.386719 7.804687 47.886719-.535156 5.804687-5.691406 10.085937-11.496094 9.558593-.105469-.011719-10.351562-1.414062-9.550781-11.597656 1.261719-15.976563-2.308594-31.46875-10.109375-44.765625 6.867187-.730469 22.492187-1.09375 23.351563-1.082031zm-39.675782 3.523437c8.59375 11.695313 12.660156 26.136719 11.480469 41.148438-1.382813 17.515625 9.207031 27.816406 25.492187 27.816406 13.050782 0 24.226563-9.980469 25.445313-23.226562 1.523437-16.515626-.628906-33.007813-6.210937-48.347657 11.015624 1.074219 21.867187 3.082031 32.460937 5.988281 4.832031 12.753907 5.183594 26.960938.921875 40.398438-5.3125 16.746094 6.214844 29.203125 16.25 32.226562 18.109375 5.464844 28.769531-5.496093 32.324219-16.214843.824219-2.480469 1.566406-5.007813 2.210937-7.515625 1.027344-4.011719-1.390625-8.101563-5.402344-9.128906-4.015624-1.027344-8.101562 1.390624-9.128906 5.402343-.558594 2.175781-1.203125 4.367188-1.914062 6.519531-1.835938 5.53125-7.835938 8.539063-13.367188 6.703126-.097656-.03125-9.761718-3.722657-6.671875-13.457032 4.101563-12.933594 4.734375-26.472656 2.003907-39.324218 14.222656 5.378906 27.851562 12.441406 40.632812 21.125 24.050781 16.347656 30.320312 49.210937 13.972656 73.265624-9.847656 14.492188-42.511718 34.148438-73.367187 13.90625-30.933594-20.289062-70.25-20.261718-100.167969.070313-2.644531 1.796875-5.417969 3.332031-8.296875 4.609375v-14.140625c0-8.621094-2.46875-16.945313-7.191406-24.683594 13.488281-2.933593 22.285156-16.140625 19.683593-29.773437-3.054687-16.019532-9.535156-31.066406-18.914062-44.136719-.003906 0 19.683594-7.667969 27.753906-9.230469zm-43.164062 13.746094c9.859375 12.234375 16.605468 26.792969 19.589844 42.433594 1.089843 5.722656-2.679688 11.269531-8.402344 12.363281-.105469.019531-10.339844 1.507813-12.386719-8.5-2.773437-13.566406-9.121094-26.101563-18.167969-36.167969 6.285156-3.75 12.753906-7.128906 19.367188-10.128906zm-32.074219 18.5c6.148437 6.328125 10.894531 14.042969 13.875 22.511719-7.789063-4.003907-16.34375-7.320313-25.476563-9.875 3.132813-4.800781 7.039063-9.066407 11.601563-12.636719zm56.0625-153.773438c3.714844-4.582031 10.316406-5.390624 15.023437-1.835937 4.710938 3.554687 5.746094 10.121094 2.355469 14.949219l-39.828125 56.738281-74.289062 49.484375zm45.902344 42.34375c4.910156-3.269531 11.453125-2.078124 14.890625 2.71875 3.4375 4.792969 2.472656 11.371094-2.203125 14.972657l-70.402344 54.277343c-17.492187 6.007813-34.214844 14.351563-49.773437 24.921876-9.015626 6.128906-16.324219 14.222656-21.449219 23.675781-20.039063-3.492188-43.480469-2.527344-49.015625-2.03125zm-231.9375 149.832032c18.804687-10.996094 43.960937-17.050782 70.839843-17.050782 26.878907 0 52.035157 6.054688 70.839844 17.050782 17.539063 10.257812 27.195313 23.460937 27.195313 37.171875 0 13.714843-9.660157 26.917969-27.195313 37.175781-18.804687 10.996094-43.960937 17.050781-70.839844 17.050781-26.878906 0-52.035156-6.054687-70.839843-17.050781-17.535157-10.257812-27.195313-23.460938-27.195313-37.175781 0-13.710938 9.660156-26.914063 27.195313-37.171875zm-102.589844 103.488281c-10.433594-16.023437.75-30.988281 6.335937-34.707031l54.296876-36.171875c-.152344 1.511719-.238282 56.363281-.238282 56.363281l-25.484375 19.648438c-5.316406 4.097656-24.46875 10.890624-34.910156-5.132813zm35.148437 22.203125c3.144532-1.316406 25.246094-17.777344 25.246094-17.777344v32.773438c0 4.507812.679688 8.933594 2 13.238281-22.332031 1.230469-29.296875-13.582031-27.246094-28.234375zm209.121094 52.167969c-18.804687 10.996093-43.960937 17.054687-70.839844 17.054687-26.878906 0-52.035156-6.058594-70.839843-17.054687-17.535157-10.257813-27.195313-23.460938-27.195313-37.171875v-68.675782c5.253906 5.578126 11.824219 10.71875 19.625 15.28125 21.0625 12.320313 48.910156 19.105469 78.410156 19.105469s57.347657-6.785156 78.414063-19.105469c7.796875-4.558593 14.367187-9.699218 19.621094-15.28125v68.675782c0 13.710937-9.65625 26.914062-27.195313 37.171875zm219.511719-100.128907c-5.546875 4.6875-8.734375 11.5-7.679687 18.59375.972656 6.539063-.878907 13.210938-5.078126 18.304688-4.238281 5.136719-10.492187 8.226562-17.15625 8.472656-7.472656.28125-14.015624 4.71875-17.082031 11.585938-3.753906 8.417968-12.136719 13.855468-21.347656 13.855468-4.984375 0-9.738281-1.546874-13.746094-4.476562-6.890625-5.03125-16.152343-5.03125-23.046875 0-4.011718 2.929688-8.765625 4.476562-13.746094 4.476562-4.984374 0-9.738281-1.546874-13.746093-4.476562-6.894531-5.03125-15.988281-4.800781-23.046875 0-9.625 6.546875-19.449219 3.953125-22.09375 2.941406.296875-2.085937.453125-79.621094.453125-79.621094 5.90625-1.960937 11.511719-4.730468 16.730469-8.273437 24.882812-16.914063 57.664062-16.886719 83.507812.066406 12.800781 8.398438 25.316406 11.175781 36.273438 11.175781 28.742187 0 41.773437-12.882812 48.65625-19.054687.957031 2.542969 6.167968 14.578125-7.851563 26.429687zm0 0"/></svg>