<svg id="Capa_1" enable-background="new 0 0 512 512" height="512" viewBox="0 0 512 512" width="512" xmlns="http://www.w3.org/2000/svg"><g><g><circle cx="157.004" cy="160.034" r="9.091"/><path d="m162.055 192.36c0 5.021 4.07 9.092 9.091 9.092s9.092-4.07 9.092-9.092c0-5.021-4.07-9.091-9.092-9.091-5.021-.001-9.091 4.07-9.091 9.091z"/><path d="m137.811 208.522c5.021 0 9.091-4.07 9.091-9.091s-4.07-9.092-9.091-9.092-9.091 4.07-9.091 9.092c-.001 5.021 4.07 9.091 9.091 9.091z"/><path d="m504.348 384.874-297.992 6.057c-4.142.084-7.431 3.51-7.346 7.651.084 4.141 3.513 7.408 7.65 7.346l290.34-5.902v15.151h-482v-5.354l156.545-3.182c4.142-.084 7.431-3.51 7.346-7.651-.084-4.142-3.518-7.432-7.65-7.346l-163.893 3.331c-4.082.083-7.348 3.416-7.348 7.499v40.407c0 4.083 3.266 7.416 7.348 7.499l497 10.102c.051.001.102.001.152.001 1.961 0 3.846-.768 5.249-2.143 1.439-1.411 2.251-3.341 2.251-5.357v-60.61c0-2.016-.812-3.946-2.251-5.357s-3.361-2.169-5.401-2.142zm-7.348 60.454-482-9.797v-5.354h482z"/><path d="m504.5 263.652h-35.504c-4.143 0-7.5 3.358-7.5 7.5s3.357 7.5 7.5 7.5h28.004v15.305h-482v-15.305h419c4.143 0 7.5-3.358 7.5-7.5s-3.357-7.5-7.5-7.5h-11.91c8.135-8.588 13.14-20.168 13.14-32.902v-16.478c4.548 2.413 9.691 3.771 15.074 3.771h.354c9.822 0 19.028-4.36 25.256-11.962 6.184-7.549 8.632-17.348 6.718-26.885-14.851-73.981-80.426-127.677-155.922-127.677h-141.421c-75.496 0-141.071 53.696-155.922 127.677-1.914 9.537.534 19.336 6.718 26.885 6.228 7.602 15.434 11.962 25.256 11.962h.354c5.383 0 10.526-1.357 15.074-3.771v16.478c0 12.734 5.005 24.314 13.14 32.902h-82.409c-4.143 0-7.5 3.358-7.5 7.5v30.305c0 4.142 3.357 7.5 7.5 7.5h34.927v53.11c0 4.142 3.357 7.5 7.5 7.5h40.406c4.143 0 7.5-3.358 7.5-7.5v-53.11h316.334v53.11c0 4.142 3.357 7.5 7.5 7.5h40.406c4.143 0 7.5-3.358 7.5-7.5v-53.11h34.927c4.143 0 7.5-3.358 7.5-7.5v-30.305c0-4.142-3.357-7.5-7.5-7.5zm-412.73-53.112c0-51.562 41.953-93.51 93.521-93.51h38.966v146.62h-99.577c-18.146 0-32.91-14.759-32.91-32.9zm86.762-143.86 3.612 35.398c-13.625.39-26.628 3.304-38.559 8.289l-18.619-30.535c16.522-7.66 34.646-12.262 53.566-13.152zm45.724 35.35h-27.039l-3.624-35.512h30.663zm15-35.512h33.488v88.518c0 4.142 3.357 7.5 7.5 7.5s7.5-3.358 7.5-7.5v-38.006h38.966c51.567 0 93.521 41.949 93.521 93.51v20.21c0 18.141-14.764 32.9-32.91 32.9h-99.576v-73.552c0-4.142-3.357-7.5-7.5-7.5s-7.5 3.358-7.5 7.5v73.552h-33.488v-197.132zm147.778 13.315-18.619 30.535c-11.931-4.985-24.934-7.899-38.559-8.289l3.612-35.398c18.92.889 37.044 5.491 53.566 13.152zm-72.251 22.197h-27.039v-35.512h30.663zm149.529 94.544c-3.367 4.111-8.344 6.468-13.652 6.468h-.354c-8.311 0-15.579-6.04-17.281-14.362-.01-.049-.026-.094-.037-.143-2.782-13.453-8.066-26-15.336-37.139l28.278-21.581c10.519 15.464 18.145 33.14 21.996 52.328 1.026 5.114-.291 10.373-3.614 14.429zm-27.452-78.702-28.248 21.557c-7.642-8.789-16.675-16.335-26.749-22.304l18.456-30.268c13.799 8.235 26.164 18.727 36.541 31.015zm-325.18-31.016 18.456 30.268c-10.074 5.969-19.107 13.515-26.749 22.304l-28.247-21.556c10.377-12.288 22.742-22.78 36.54-31.016zm-49.985 116.186h-.354c-5.309 0-10.285-2.357-13.652-6.468-3.323-4.057-4.641-9.315-3.614-14.427 3.852-19.188 11.477-36.865 21.996-52.328l28.278 21.581c-7.27 11.139-12.554 23.686-15.336 37.139-.011.048-.027.094-.037.143-1.702 8.32-8.97 14.36-17.281 14.36zm21.138 151.525h-25.406v-45.61h25.406zm371.74 0h-25.406v-45.61h25.406z"/></g></g></svg>