<?xml version="1.0" encoding="iso-8859-1"?>
<!-- Generator: Adobe Illustrator 19.0.0, SVG Export Plug-In . SVG Version: 6.00 Build 0)  -->
<svg version="1.1" id="Layer_1" xmlns="http://www.w3.org/2000/svg" xmlns:xlink="http://www.w3.org/1999/xlink" x="0px" y="0px"
	 viewBox="0 0 512 512" style="enable-background:new 0 0 512 512;" xml:space="preserve">
<g>
	<g>
		<path d="M67.092,65.757c-4.329,0-7.837,3.509-7.837,7.837c0,4.328,3.508,7.837,7.837,7.837c5.306,0,9.622,4.317,9.622,9.624
			c0,4.328,3.508,7.837,7.837,7.837c4.329,0,7.837-3.509,7.837-7.837C92.388,77.105,81.04,65.757,67.092,65.757z"/>
	</g>
</g>
<g>
	<g>
		<path d="M504.163,61.275h-69.486c-4.329,0-7.837,3.509-7.837,7.837c0,4.328,3.508,7.837,7.837,7.837h69.486
			c4.329,0,7.837-3.509,7.837-7.837C512,64.784,508.492,61.275,504.163,61.275z"/>
	</g>
</g>
<g>
	<g>
		<path d="M413.78,61.275H170.841c-4.329,0-7.837,3.509-7.837,7.837c0,4.328,3.508,7.837,7.837,7.837H413.78
			c4.329,0,7.837-3.509,7.837-7.837C421.616,64.784,418.109,61.275,413.78,61.275z"/>
	</g>
</g>
<g>
	<g>
		<path d="M504.163,100.239h-69.486c-4.329,0-7.837,3.509-7.837,7.837c0,4.328,3.508,7.837,7.837,7.837h69.486
			c4.329,0,7.837-3.509,7.837-7.837C512,103.748,508.492,100.239,504.163,100.239z"/>
	</g>
</g>
<g>
	<g>
		<path d="M413.78,100.239H170.841c-4.329,0-7.837,3.509-7.837,7.837c0,4.328,3.508,7.837,7.837,7.837H413.78
			c4.329,0,7.837-3.509,7.837-7.837C421.616,103.748,418.109,100.239,413.78,100.239z"/>
	</g>
</g>
<g>
	<g>
		<path d="M67.092,23.962C30.097,23.962,0,54.059,0,91.054c0,36.994,30.097,67.092,67.092,67.092s67.092-30.097,67.092-67.092
			S104.086,23.962,67.092,23.962z M67.092,142.473c-28.352,0-51.418-23.067-51.418-51.418c0-28.353,23.066-51.419,51.418-51.419
			c28.352,0,51.418,23.067,51.418,51.419C118.51,119.407,95.444,142.473,67.092,142.473z"/>
	</g>
</g>
<g>
	<g>
		<path d="M105.174,372.894H67.847c-12.665,0-22.969,10.305-22.969,22.97v37.328h-0.001c0,12.665,10.304,22.969,22.969,22.969
			h37.328c12.666,0,22.97-10.304,22.97-22.969v-37.328C128.144,383.198,117.84,372.894,105.174,372.894z M112.471,433.192
			c0,4.023-3.274,7.295-7.297,7.295H67.847c-4.024,0-7.295-3.273-7.295-7.295v-37.328h-0.001c0-4.024,3.273-7.297,7.295-7.297
			h37.328c4.024,0,7.297,3.274,7.297,7.297V433.192z"/>
	</g>
</g>
<g>
	<g>
		<path d="M189.92,372.894h-37.328c-12.666,0-22.97,10.305-22.97,22.97v37.328c0,12.665,10.304,22.969,22.97,22.969h37.328
			c12.666,0,22.97-10.304,22.97-22.969v-37.328C212.89,383.198,202.586,372.894,189.92,372.894z M197.216,433.192
			c0,4.023-3.274,7.295-7.297,7.295h-37.328c-4.024,0-7.297-3.273-7.297-7.295v-37.328c0-4.024,3.274-7.297,7.297-7.297h37.328
			c4.024,0,7.297,3.274,7.297,7.297V433.192z"/>
	</g>
</g>
<g>
	<g>
		<path d="M274.664,372.894h-37.328c-12.665,0-22.97,10.305-22.97,22.97v37.328c0,12.665,10.304,22.969,22.97,22.969h37.328
			c12.665,0,22.969-10.304,22.969-22.969v-37.328C297.633,383.198,287.329,372.894,274.664,372.894z M281.961,433.192
			c0,4.023-3.273,7.295-7.295,7.295h-37.328c-4.024,0-7.297-3.273-7.297-7.295v-37.328c0-4.024,3.274-7.297,7.297-7.297h37.328
			c4.023,0,7.295,3.274,7.295,7.297V433.192z"/>
	</g>
</g>
<g>
	<g>
		<path d="M359.408,372.894H322.08c-12.665,0-22.969,10.305-22.969,22.97v37.328c0,12.665,10.304,22.969,22.969,22.969h37.328
			c12.666,0,22.97-10.304,22.97-22.969v-37.328C382.378,383.198,372.075,372.894,359.408,372.894z M366.705,433.192
			c0,4.023-3.274,7.295-7.297,7.295H322.08c-4.024,0-7.295-3.273-7.295-7.295v-37.328c0-4.024,3.273-7.297,7.295-7.297h37.328
			c4.023,0,7.297,3.274,7.297,7.297V433.192z"/>
	</g>
</g>
<g>
	<g>
		<path d="M444.153,372.894h-37.328c-12.666,0-22.97,10.305-22.97,22.97v37.328c0,12.665,10.304,22.969,22.97,22.969h37.328
			c12.665,0,22.969-10.304,22.969-22.969v-37.328C467.123,383.199,456.819,372.894,444.153,372.894z M451.449,433.192
			c0,4.023-3.273,7.295-7.295,7.295h-37.328c-4.024,0-7.297-3.273-7.297-7.295v-37.328c0-4.024,3.274-7.297,7.297-7.297h37.328
			c4.024,0,7.295,3.274,7.295,7.297V433.192z"/>
	</g>
</g>
<g>
	<g>
		<path d="M86.511,390.044c-13.5,0-24.484,10.983-24.484,24.483c0,13.501,10.984,24.484,24.484,24.484s24.483-10.983,24.483-24.484
			C110.994,401.027,100.011,390.044,86.511,390.044z M86.511,423.338c-4.858,0-8.811-3.952-8.811-8.811
			c0-4.858,3.953-8.81,8.811-8.81c4.857,0,8.81,3.952,8.81,8.81C95.321,419.385,91.369,423.338,86.511,423.338z"/>
	</g>
</g>
<g>
	<g>
		<path d="M171.255,390.044c-13.5,0-24.483,10.983-24.483,24.483c0.001,13.501,10.984,24.484,24.483,24.484
			c13.5,0,24.484-10.983,24.484-24.484C195.739,401.027,184.755,390.044,171.255,390.044z M171.255,423.338
			c-4.857,0-8.81-3.952-8.81-8.811c0.001-4.858,3.953-8.81,8.81-8.81c4.858,0,8.811,3.952,8.811,8.81
			C180.065,419.385,176.113,423.338,171.255,423.338z"/>
	</g>
</g>
<g>
	<g>
		<path d="M256,390.044c-13.5,0-24.484,10.983-24.484,24.483c0,13.501,10.984,24.484,24.484,24.484
			c13.5,0,24.484-10.983,24.484-24.484C280.484,401.027,269.5,390.044,256,390.044z M256,423.338c-4.859,0-8.811-3.952-8.811-8.811
			c0-4.858,3.953-8.81,8.811-8.81c4.858,0,8.811,3.952,8.811,8.81C264.811,419.385,260.859,423.338,256,423.338z"/>
	</g>
</g>
<g>
	<g>
		<path d="M340.744,390.045c-13.5,0-24.484,10.983-24.484,24.483c0,13.5,10.984,24.484,24.484,24.484
			c13.5,0,24.483-10.983,24.483-24.484C365.227,401.028,354.244,390.045,340.744,390.045z M340.744,423.337
			c-4.858,0-8.811-3.952-8.811-8.811c0-4.858,3.952-8.81,8.811-8.81c4.858,0,8.81,3.952,8.81,8.81
			C349.554,419.385,345.602,423.337,340.744,423.337z"/>
	</g>
</g>
<g>
	<g>
		<path d="M425.489,390.045c-13.5,0-24.483,10.983-24.483,24.483c0,13.5,10.983,24.484,24.483,24.484s24.484-10.983,24.484-24.484
			C449.973,401.028,438.989,390.045,425.489,390.045z M425.489,423.337c-4.857,0-8.81-3.952-8.81-8.811
			c0-4.858,3.952-8.81,8.81-8.81s8.811,3.952,8.811,8.81C434.299,419.385,430.346,423.337,425.489,423.337z"/>
	</g>
</g>
<g>
	<g>
		<path d="M493.714,170.389H239.577c-1.456-7.316-5.465-10.607-8.223-12.022c-2.016-1.033-4.232-1.558-6.588-1.558
			c-9.37,0-18.772,8.404-25.943,18.197c-7.171-9.794-16.572-18.197-25.943-18.197c-2.356,0-4.573,0.523-6.59,1.559
			c-2.756,1.415-6.767,4.704-8.221,12.021H18.286C8.203,170.389,0,178.592,0,188.675v281.078c0,10.082,8.203,18.286,18.286,18.286
			h66.35c4.329,0,7.837-3.509,7.837-7.837c0-4.328-3.508-7.837-7.837-7.837h-66.35c-1.441,0-2.612-1.172-2.612-2.612V237.714h4.18
			c4.329,0,7.837-3.509,7.837-7.837c0-4.328-3.508-7.837-7.837-7.837h-4.18v-8.359h13.061c4.329,0,7.837-3.509,7.837-7.837
			s-3.508-7.837-7.837-7.837H15.673v-9.333c0-1.441,1.171-2.612,2.612-2.612h140.275c1.372,6.85,4.041,14.322,7.778,21.607
			c0.877,1.708,1.808,3.365,2.769,4.984c-10.763,7.167-17.873,19.406-17.873,33.279v73.076c0,22.033,17.924,39.958,39.957,39.958
			h15.26c22.033,0,39.957-17.925,39.957-39.958v-73.076c0-13.872-7.109-26.112-17.872-33.279c0.961-1.62,1.892-3.276,2.769-4.984
			c3.738-7.285,6.407-14.757,7.778-21.607h254.63c1.441,0,2.612,1.171,2.612,2.612v218.313h-4.18c-4.329,0-7.837,3.509-7.837,7.837
			c0,4.328,3.508,7.837,7.837,7.837h4.18v11.494h-6.899c-4.329,0-7.837,3.509-7.837,7.837c0,4.328,3.508,7.837,7.837,7.837h6.899
			v19.924c0,1.44-1.171,2.612-2.612,2.612H120.162c-4.329,0-7.837,3.509-7.837,7.837c0,4.328,3.508,7.837,7.837,7.837h373.552
			c10.082,0,18.286-8.203,18.286-18.286V188.675C512,178.593,503.797,170.389,493.714,170.389z M173.596,172.611
			c3.082,0.937,11.074,7.138,18.299,20.803c1.357,2.567,4.024,4.173,6.928,4.173c2.904,0,5.57-1.606,6.928-4.173
			c7.228-13.666,15.218-19.866,18.301-20.803c1.084,3.137,0.65,13.602-6.688,27.905c-1.104,2.151-2.286,4.207-3.517,6.157
			c-2.397-0.451-4.865-0.697-7.392-0.697h-15.26c-2.527,0-4.995,0.246-7.392,0.697c-1.232-1.949-2.414-4.005-3.517-6.157
			C172.946,186.213,172.513,175.748,173.596,172.611z M206.453,343.293h-15.26c-12.274,0-22.444-9.156-24.055-20.997
			c9.8,5.52,20.735,8.301,31.684,8.301c10.946,0,21.883-2.783,31.684-8.303C228.898,334.135,218.727,343.293,206.453,343.293z
			 M230.736,309.107c-18.881,14.005-44.945,14.005-63.827,0v-15.505c9.859,5.606,20.878,8.43,31.913,8.43
			c11.032,0,22.054-2.825,31.913-8.431V309.107z M230.736,280.542c-18.881,14.005-44.945,14.005-63.827-0.001v-15.505
			c9.859,5.606,20.878,8.43,31.913,8.43c11.032,0,22.054-2.825,31.913-8.431V280.542z M230.736,245.932v6.043
			c-18.881,14.006-44.945,14.006-63.827,0v-6.043c0-13.321,10.781-24.167,24.077-24.279v21.215c0,4.328,3.508,7.837,7.837,7.837
			c4.329,0,7.837-3.509,7.837-7.837v-21.215C219.955,221.765,230.736,232.611,230.736,245.932z"/>
	</g>
</g>
<g>
	<g>
		<path d="M100.112,205.974H84.853c-22.033,0-39.958,17.925-39.958,39.958v73.076c0,22.033,17.925,39.958,39.958,39.958h15.259
			c22.033,0,39.958-17.925,39.958-39.958v-73.076C140.07,223.9,122.144,205.974,100.112,205.974z M60.569,245.932
			c0-13.39,10.894-24.284,24.284-24.284h7.8c-11.435,7.951-22.622,17.465-32.085,26.867V245.932z M60.569,263.522
			c12.734-14.04,31.102-29.867,48.566-40.129c6.173,2.481,11.097,7.423,13.552,13.608c-22.832,10.54-45.597,27.453-62.118,45.641
			V263.522z M124.396,319.008c0,13.39-10.894,24.284-24.284,24.284h-6.617c8.24-9.201,19.497-18.901,30.902-25.968V319.008z
			 M124.396,305.234c-16.841,9.227-33.904,24.42-44.096,37.625c-5.919-1.128-11.08-4.409-14.639-8.997
			c12.828-18.264,35.483-37.381,58.735-49.761V305.234z M124.396,272.359c-24.403,11.96-48.359,31.074-63.529,50.443
			c-0.196-1.237-0.299-2.504-0.299-3.795v-20.146c14.973-19.785,39.183-39.231,63.828-51.122V272.359z"/>
	</g>
</g>
<g>
	<g>
		<path d="M353.511,264.997v-18.751c0-22.033-17.924-39.958-39.957-39.958h-15.26c-22.033,0-39.957,17.925-39.957,39.958v18.751
			c-1.299,2.33-2.046,5.007-2.046,7.859v19.853c0,2.852,0.747,5.53,2.046,7.859v18.753c0,22.033,17.924,39.957,39.957,39.957h15.26
			c22.033,0,39.957-17.924,39.957-39.957v-18.753c1.299-2.33,2.046-5.007,2.046-7.859v-19.853
			C355.557,270.004,354.81,267.326,353.511,264.997z M274.011,246.246c0-13.39,10.894-24.284,24.283-24.284h15.26
			c13.389,0,24.283,10.894,24.283,24.284v10.414h-5.224v-10.414c0-10.51-8.55-19.06-19.059-19.06h-15.26
			c-10.51,0-19.059,8.55-19.059,19.06v10.414h-5.224V246.246z M305.924,245.167c-2.886,0-5.224,2.34-5.224,5.224v6.269h-5.791
			v-10.414c0-1.867,1.518-3.387,3.385-3.387h15.26c1.867,0,3.385,1.519,3.385,3.387v10.414h-5.791v-6.269
			C311.149,247.506,308.81,245.167,305.924,245.167z M337.837,319.322c0,13.39-10.894,24.283-24.283,24.283h-15.26
			c-13.389,0-24.283-10.893-24.283-24.283v-10.417h5.224v10.417c0,10.51,8.55,19.059,19.059,19.059h15.26
			c10.51,0,19.059-8.55,19.059-19.059v-10.417h5.224V319.322z M305.924,320.399c2.886,0,5.224-2.34,5.224-5.225v-6.269h5.791v10.417
			c0,1.867-1.518,3.385-3.385,3.385h-15.26c-1.867,0-3.385-1.519-3.385-3.385v-10.417h5.791v6.269
			C300.7,318.06,303.039,320.399,305.924,320.399z M339.883,292.709c0,0.288-0.235,0.522-0.522,0.522h-66.873
			c-0.287,0-0.522-0.234-0.522-0.522v-19.853c0-0.288,0.235-0.522,0.522-0.522h66.873c0.287,0,0.522,0.234,0.522,0.522V292.709z"/>
	</g>
</g>
<g>
	<g>
		<path d="M465.077,264.997v-18.751c0-22.033-17.924-39.958-39.957-39.958h-15.26c-22.033,0-39.957,17.925-39.957,39.958v18.751
			c-1.299,2.33-2.046,5.007-2.046,7.859v19.853c0,2.852,0.747,5.53,2.046,7.859v18.753c0,22.033,17.924,39.957,39.957,39.957h15.26
			c22.033,0,39.957-17.924,39.957-39.957v-18.753c1.299-2.33,2.046-5.007,2.046-7.859v-19.853
			C467.123,270.004,466.376,267.326,465.077,264.997z M385.577,246.246L385.577,246.246c0-13.39,10.894-24.284,24.283-24.284h15.26
			c13.389,0,24.283,10.894,24.283,24.284v10.414h-63.827V246.246z M449.403,319.322L449.403,319.322
			c0,13.39-10.894,24.283-24.283,24.283h-15.26c-13.389,0-24.283-10.893-24.283-24.283v-10.417h63.827V319.322z M451.449,292.709
			c0,0.288-0.235,0.522-0.522,0.522h-66.873c-0.287,0-0.522-0.234-0.522-0.522v-19.853c0-0.288,0.235-0.522,0.522-0.522h66.873
			c0.287,0,0.522,0.234,0.522,0.522V292.709z"/>
	</g>
</g>
<g>
	<g>
		<path d="M67.093,44.86c-25.473,0-46.195,20.722-46.195,46.195c0,25.471,20.722,46.194,46.194,46.194
			c4.329,0,7.837-3.509,7.837-7.837c0-4.328-3.508-7.837-7.837-7.837c-16.828,0-30.52-13.691-30.52-30.52
			s13.692-30.521,30.52-30.521s30.52,13.692,30.52,30.521c0,8.513-3.613,16.71-9.913,22.489c-3.19,2.926-3.404,7.883-0.479,11.073
			c2.927,3.189,7.884,3.402,11.073,0.478c9.528-8.74,14.993-21.147,14.993-34.04C113.287,65.583,92.564,44.86,67.093,44.86z"/>
	</g>
</g>
<g>
</g>
<g>
</g>
<g>
</g>
<g>
</g>
<g>
</g>
<g>
</g>
<g>
</g>
<g>
</g>
<g>
</g>
<g>
</g>
<g>
</g>
<g>
</g>
<g>
</g>
<g>
</g>
<g>
</g>
</svg>
