<svg height="479pt" viewBox="0 -84 479.99779 479" width="479pt" xmlns="http://www.w3.org/2000/svg"><path d="m88 72.480469c-29.832031 0-56 48.601562-56 104 0 55.398437 26.167969 104 56 104s56-48.601563 56-104c0-55.398438-26.167969-104-56-104zm0 192c-15.921875 0-40-35.105469-40-88s24.078125-88 40-88 40 35.105469 40 88-24.078125 88-40 88zm0 0"/><path d="m88 136.480469c-15.703125 0-28 17.601562-28 40 0 22.398437 12.296875 40 28 40s28-17.601563 28-40c0-22.398438-12.296875-40-28-40zm0 64c-5.664062 0-12-10.265625-12-24s6.335938-24 12-24 12 10.265625 12 24-6.335938 24-12 24zm0 0"/><path d="m478.304688 75.5625c-1.515626-1.945312-3.839844-3.082031-6.304688-3.082031-36.597656-.050781-68.511719 24.871093-77.335938 60.390625l-6.496093 26.007812c-7.84375-9.40625-16.214844-18.367187-25.070313-26.832031l9.160156-9.484375-11.515624-11.113281-9.503907 9.832031c-4.578125-3.972656-9.269531-7.816406-14.0625-11.527344l9.160157-11.875-12.671876-9.765625-9.375 12.152344c-4.964843-3.476563-10.03125-6.816406-15.199218-10.015625l9.390625-13.089844-13-9.328125-10.207031 14.25c-3.519532-1.953125-7.050782-3.882812-10.632813-5.707031-26.144531-37.53125-66.160156-63.109375-111.199219-71.078125l-28.121094-4.6875c-2.316406-.386719-4.6875.261719-6.484374 1.777344-1.792969 1.515625-2.832032 3.746093-2.835938 6.09375v32h-48c-48.519531 0-88 61.007812-88 136 0 74.992187 39.480469 136 88 136h48c56.738281-.105469 112.484375-14.898438 161.808594-42.945313l9.359375 13.035156 13-9.289062-8.617188-12c5.132813-3.25 10.171875-6.640625 15.121094-10.175781l8.65625 11.199219 12.671875-9.785157-8.542969-11.078125c4.800781-3.777344 9.476563-7.683594 14.03125-11.722656l8.910157 9.242188 11.511718-11.113282-8.695312-9.015625c8.078125-7.84375 15.738281-16.105469 22.953125-24.75l6.496093 25.984375c8.8125 35.527344 40.730469 60.460938 77.335938 60.414063 2.460938 0 4.789062-1.136719 6.304688-3.074219 1.515624-1.941406 2.050781-4.472656 1.457031-6.863281l-23.515625-94.0625 23.515625-94.0625c.59375-2.390625.054687-4.917969-1.457031-6.855469zm-286.304688-30.171875v-18.949219c8.277344 2.664063 16.308594 6.050782 24 10.109375v14.050781c-7.929688-2.015624-15.921875-3.792968-24-5.210937zm40 1.066406c6.488281 4.484375 12.640625 9.4375 18.398438 14.824219-6.078126-2.242188-12.210938-4.320312-18.398438-6.242188zm-80-28.527343 18.808594 3.125c1.75.296874 3.457031.800781 5.191406 1.144531v20.800781c-7.953125-.984375-15.953125-1.671875-24-2.054688zm-16 38.550781c84.683594.230469 165.675781 34.691406 224.558594 95.550781-58.160156-25.980469-121.128906-39.457031-184.832032-39.550781h-10.125c-6.820312-21.601563-19.359374-40.953125-36.289062-56zm-120 120c0-66.167969 32.296875-120 72-120s72 53.832031 72 120-32.296875 120-72 120-72-53.832031-72-120zm120 120h-6.679688c27.742188-22.910157 46.679688-68.089844 46.679688-120 .011719-16.171875-1.925781-32.289063-5.769531-48h5.496093c71.097657.09375 141.109376 17.464843 204 50.625-59.308593 73.96875-148.914062 117.121093-243.726562 117.375zm304.238281-121.9375c-.316406 1.273437-.316406 2.601562 0 3.875l21.296875 85.214843c-25.042968-4.152343-45.226562-22.785156-51.359375-47.417968l-9.929687-39.734375 9.929687-39.734375c6.132813-24.632813 26.316407-43.265625 51.359375-47.417969zm0 0"/><path d="m287.273438 168.480469-88 8c-3.472657.332031-6.328126 2.875-7.058594 6.285156-.730469 3.410156.828125 6.898437 3.855468 8.625l56 32c3.421876 1.957031 7.753907 1.132813 10.21875-1.941406l32-40c2.011719-2.511719 2.324219-5.984375.792969-8.8125-1.53125-2.832031-4.605469-4.46875-7.808593-4.15625zm-33.242188 37.601562-28-16 44-4zm0 0"/></svg>