<?xml version="1.0" encoding="UTF-8"?>
<svg width="172px" height="107px" viewBox="0 0 172 107" version="1.1" xmlns="http://www.w3.org/2000/svg" xmlns:xlink="http://www.w3.org/1999/xlink">
    <!-- Generator: Sketch 57.1 (83088) - https://sketch.com -->
    <title>Group 2</title>
    <desc>Created with Sketch.</desc>
    <g id="Page-1" stroke="none" stroke-width="1" fill="none" fill-rule="evenodd">
        <g id="t" transform="translate(-271.000000, -90.000000)" >
            <g id="Group-2" transform="translate(271.000000, 90.000000)">
                <path d="M13.4,79 C11.3666565,79 9.516675,78.5 7.85,77.5 C6.183325,76.5 4.8666715,75.200008 3.9,73.6 L3.9,78.5 L0,78.5 L0,42 L4.4,42 L4.4,57.6 C5.5,55.8999915 6.849992,54.5333385 8.45,53.5 C10.050008,52.4666615 11.916656,51.95 14.05,51.95 C15.850009,51.95 17.4666595,52.3333295 18.9,53.1 C20.3333405,53.8666705 21.5583282,54.8749938 22.575,56.125 C23.5916717,57.3750062 24.3749973,58.8249917 24.925,60.475 C25.4750027,62.1250083 25.75,63.816658 25.75,65.55 C25.75,67.3833425 25.4333365,69.1166585 24.8,70.75 C24.1666635,72.3833415 23.3000055,73.8083272 22.2,75.025 C21.0999945,76.2416727 19.7916742,77.2083298 18.275,77.925 C16.7583258,78.6416703 15.133342,79 13.4,79 Z M12.3,75.2 C13.6000065,75.2 14.7999945,74.933336 15.9,74.4 C17.0000055,73.866664 17.949996,73.1500045 18.75,72.25 C19.550004,71.3499955 20.1666645,70.3250058 20.6,69.175 C21.0333355,68.0249942 21.25,66.816673 21.25,65.55 C21.25,64.283327 21.0416687,63.0583393 20.625,61.875 C20.2083313,60.6916607 19.6250038,59.6500045 18.875,58.75 C18.1249962,57.8499955 17.2250052,57.1250028 16.175,56.575 C15.1249948,56.0249972 13.966673,55.75 12.7,55.75 C11.766662,55.75 10.8833375,55.916665 10.05,56.25 C9.2166625,56.583335 8.44167025,57.0249972 7.725,57.575 C7.00832975,58.1250028 6.37500275,58.766663 5.825,59.5 C5.27499725,60.233337 4.800002,61.0166625 4.4,61.85 L4.4,69.4 C4.5666675,70.2333375 4.92499725,70.9999965 5.475,71.7 C6.02500275,72.4000035 6.67499625,73.0083307 7.425,73.525 C8.17500375,74.0416692 8.97499575,74.4499985 9.825,74.75 C10.6750043,75.0500015 11.499996,75.2 12.3,75.2 Z M52.7,79 C50.7333235,79 48.9333415,78.6416703 47.3,77.925 C45.6666585,77.2083298 44.2666725,76.2333395 43.1,75 C41.9333275,73.7666605 41.0250033,72.3250082 40.375,70.675 C39.7249968,69.0249917 39.4,67.2833425 39.4,65.45 C39.4,63.6166575 39.7249968,61.8833415 40.375,60.25 C41.0250033,58.6166585 41.9416608,57.1833395 43.125,55.95 C44.3083393,54.7166605 45.7166585,53.7416702 47.35,53.025 C48.9833415,52.3083297 50.7833235,51.95 52.75,51.95 C54.7166765,51.95 56.5083253,52.316663 58.125,53.05 C59.7416748,53.783337 61.116661,54.7583272 62.25,55.975 C63.383339,57.1916727 64.2583303,58.6083252 64.875,60.225 C65.4916698,61.8416747 65.8,63.516658 65.8,65.25 C65.8,65.6166685 65.7916668,65.95 65.775,66.25 C65.7583333,66.5500015 65.7333335,66.7833325 65.7,66.95 L44.05,66.95 C44.1500005,68.2500065 44.4499975,69.433328 44.95,70.5 C45.4500025,71.566672 46.099996,72.4833295 46.9,73.25 C47.700004,74.0166705 48.6083282,74.6166645 49.625,75.05 C50.6416718,75.4833355 51.716661,75.7 52.85,75.7 C53.650004,75.7 54.4333295,75.5916677 55.2,75.375 C55.9666705,75.1583323 56.68333,74.8666685 57.35,74.5 C58.01667,74.1333315 58.6083308,73.683336 59.125,73.15 C59.6416693,72.616664 60.033332,72.01667 60.3,71.35 L64.1,72.4 C63.6666645,73.3666715 63.0750038,74.249996 62.325,75.05 C61.5749963,75.850004 60.7083383,76.5416637 59.725,77.125 C58.7416618,77.7083363 57.650006,78.166665 56.45,78.5 C55.249994,78.833335 54.0000065,79 52.7,79 Z M61.65,63.7 C61.5499995,62.4666605 61.2416693,61.3250052 60.725,60.275 C60.2083308,59.2249947 59.5583373,58.333337 58.775,57.6 C57.9916628,56.866663 57.0833385,56.2916687 56.05,55.875 C55.0166615,55.4583313 53.9166725,55.25 52.75,55.25 C51.5833275,55.25 50.4833385,55.4583313 49.45,55.875 C48.4166615,56.2916687 47.5083373,56.8749963 46.725,57.625 C45.9416628,58.3750037 45.3083358,59.2666615 44.825,60.3 C44.3416643,61.3333385 44.0500005,62.4666605 43.95,63.7 L61.65,63.7 Z M103.35,78.5 L98.95,78.5 L98.95,63.9 C98.95,61.099986 98.5250043,59.066673 97.675,57.8 C96.8249958,56.533327 95.533342,55.9 93.8,55.9 C92.8999955,55.9 92.0000045,56.0749983 91.1,56.425 C90.2,56.7750018 89.350004,57.249997 88.55,57.85 C87.749996,58.45 87.050003,59.1666625 86.45,60 C85.849997,60.8333375 85.4000015,61.749995 85.1,62.75 L85.1,78.5 L80.7,78.5 L80.7,52.4 L84.7,52.4 L84.7,58 C85.7333385,56.1666575 87.2249903,54.7000055 89.175,53.6 C91.1250098,52.4999945 93.2499885,51.95 95.55,51.95 C97.0500075,51.95 98.299995,52.2249973 99.3,52.775 C100.300005,53.3250027 101.099997,54.0916618 101.7,55.075 C102.300003,56.0583382 102.724999,57.21666 102.975,58.55 C103.225001,59.88334 103.35,61.3333255 103.35,62.9 L103.35,78.5 Z M133.45,77.2 C133.183332,77.333334 132.833336,77.4916658 132.4,77.675 C131.966665,77.8583342 131.475003,78.0416657 130.925,78.225 C130.374997,78.4083342 129.775003,78.5583328 129.125,78.675 C128.474997,78.7916673 127.800004,78.85 127.1,78.85 C125.499992,78.85 124.116673,78.4083378 122.95,77.525 C121.783327,76.6416622 121.2,75.266676 121.2,73.4 L121.2,55.85 L117.65,55.85 L117.65,52.4 L121.2,52.4 L121.2,43.7 L125.6,43.7 L125.6,52.4 L131.45,52.4 L131.45,55.85 L125.6,55.85 L125.6,72.05 C125.666667,73.0166715 125.983331,73.7166645 126.55,74.15 C127.11667,74.5833355 127.78333,74.8 128.55,74.8 C129.416671,74.8 130.20833,74.6583347 130.925,74.375 C131.64167,74.0916653 132.133332,73.8666675 132.4,73.7 L133.45,77.2 Z M158.6,79 C156.633323,79 154.841675,78.633337 153.225,77.9 C151.608325,77.166663 150.225006,76.1833395 149.075,74.95 C147.924994,73.7166605 147.033336,72.2833415 146.4,70.65 C145.766663,69.0166585 145.45,67.300009 145.45,65.5 C145.45,63.6666575 145.774997,61.9333415 146.425,60.3 C147.075003,58.6666585 147.974994,57.2333395 149.125,56 C150.275006,54.7666605 151.658325,53.783337 153.275,53.05 C154.891675,52.316663 156.666657,51.95 158.6,51.95 C160.533343,51.95 162.316658,52.316663 163.95,53.05 C165.583341,53.783337 166.974994,54.7666605 168.125,56 C169.275006,57.2333395 170.174997,58.6666585 170.825,60.3 C171.475003,61.9333415 171.8,63.6666575 171.8,65.5 C171.8,67.300009 171.483336,69.0166585 170.85,70.65 C170.216663,72.2833415 169.316672,73.7166605 168.15,74.95 C166.983327,76.1833395 165.591675,77.166663 163.975,77.9 C162.358325,78.633337 160.566676,79 158.6,79 Z M149.95,65.55 C149.95,66.9166735 150.174998,68.1833275 150.625,69.35 C151.075002,70.5166725 151.691663,71.533329 152.475,72.4 C153.258337,73.266671 154.174995,73.9499975 155.225,74.45 C156.275005,74.9500025 157.399994,75.2 158.6,75.2 C159.800006,75.2 160.924995,74.9500025 161.975,74.45 C163.025005,73.9499975 163.95,73.2583377 164.75,72.375 C165.550004,71.4916623 166.174998,70.4583392 166.625,69.275 C167.075002,68.0916608 167.3,66.8166735 167.3,65.45 C167.3,64.11666 167.075002,62.8583393 166.625,61.675 C166.174998,60.4916608 165.550004,59.4583377 164.75,58.575 C163.95,57.6916623 163.025005,57.0000025 161.975,56.5 C160.924995,55.9999975 159.800006,55.75 158.6,55.75 C157.399994,55.75 156.275005,56.0083307 155.225,56.525 C154.174995,57.0416692 153.258337,57.7416622 152.475,58.625 C151.691663,59.5083378 151.075002,60.5416607 150.625,61.725 C150.174998,62.9083392 149.95,64.1833265 149.95,65.55 Z" id="bento" fill-rule="nonzero"></path>
                <g id="Group" transform="translate(62.000000, 0.000000)">
                    <polygon id="Path" transform="translate(26.368343, 26.765060) rotate(-28.000000) translate(-26.368343, -26.765060) " points="2.91548042 28.9080758 49.875463 23.705409 48.358105 26.8979401 2.86122275 29.8247103"></polygon>
                    <polygon id="Path" transform="translate(20.656525, 19.584721) rotate(-43.000000) translate(-20.656525, -19.584721) " points="-3.6932542 22.0116813 45.0715915 16.2731583 43.4662095 19.3745609 -3.75854136 22.8962839"></polygon>
                </g>
                <path d="M13.63,103.448 C13.63,103.830669 13.5530008,104.180665 13.399,104.498 C13.2449992,104.815335 13.0350013,105.085999 12.769,105.31 C12.5029987,105.534001 12.1950018,105.706666 11.845,105.828 C11.4949983,105.949334 11.1193353,106.01 10.718,106.01 L6,106.01 L6,96.07 L10.942,96.07 C11.2873351,96.07 11.5999986,96.1446659 11.88,96.294 C12.1600014,96.4433341 12.397999,96.6369988 12.594,96.875 C12.790001,97.1130012 12.9416661,97.3836651 13.049,97.687 C13.1563339,97.9903348 13.21,98.2959985 13.21,98.604 C13.21,99.0986691 13.0863346,99.5559979 12.839,99.976 C12.5916654,100.396002 12.2393356,100.708666 11.782,100.914 C12.3513362,101.082001 12.801665,101.392331 13.133,101.845 C13.464335,102.297669 13.63,102.831997 13.63,103.448 Z M12.356,103.224 C12.356,102.999999 12.3163337,102.783001 12.237,102.573 C12.1576663,102.362999 12.050334,102.178667 11.915,102.02 C11.779666,101.861333 11.6186676,101.735334 11.432,101.642 C11.2453324,101.548666 11.0400011,101.502 10.816,101.502 L7.26,101.502 L7.26,104.918 L10.718,104.918 C10.9513345,104.918 11.165999,104.871334 11.362,104.778 C11.558001,104.684666 11.7306659,104.561001 11.88,104.407 C12.0293341,104.252999 12.1459996,104.073334 12.23,103.868 C12.3140004,103.662666 12.356,103.448001 12.356,103.224 Z M7.26,97.162 L7.26,100.48 L10.424,100.48 C10.6480011,100.48 10.8533324,100.435667 11.04,100.347 C11.2266676,100.258333 11.387666,100.139334 11.523,99.99 C11.658334,99.8406659 11.7656663,99.6656677 11.845,99.465 C11.9243337,99.2643323 11.964,99.0520011 11.964,98.828 C11.964,98.5946655 11.926667,98.3753344 11.852,98.17 C11.777333,97.9646656 11.6770006,97.7873341 11.551,97.638 C11.4249994,97.4886659 11.2710009,97.3720004 11.089,97.288 C10.9069991,97.2039996 10.7133344,97.162 10.508,97.162 L7.26,97.162 Z M17.338,96.07 L20.348,101.25 L23.386,96.07 L24.758,96.07 L20.978,102.384 L20.978,106.01 L19.718,106.01 L19.718,102.356 L15.952,96.07 L17.338,96.07 Z M33.154,106.01 L33.154,96.084 L34.414,96.084 L34.414,101.572 L39.538,96.07 L40.896,96.07 L36.906,100.452 L41.12,106.01 L39.748,106.01 L36.136,101.18 L34.414,102.972 L34.414,106.01 L33.154,106.01 Z M47.754,106.08 C47.0539965,106.08 46.4170029,105.937668 45.843,105.653 C45.2689971,105.368332 44.7766687,104.990336 44.366,104.519 C43.9553313,104.047664 43.6380011,103.50867 43.414,102.902 C43.1899989,102.29533 43.078,101.67467 43.078,101.04 C43.078,100.37733 43.1969988,99.7426697 43.435,99.136 C43.6730012,98.5293303 44.0019979,97.992669 44.422,97.526 C44.8420021,97.059331 45.3389971,96.6883347 45.913,96.413 C46.4870029,96.1376653 47.1099966,96 47.782,96 C48.4820035,96 49.1166638,96.1469985 49.686,96.441 C50.2553362,96.7350015 50.7453313,97.1199976 51.156,97.596 C51.5666687,98.0720024 51.8839989,98.610997 52.108,99.213 C52.3320011,99.815003 52.444,100.428664 52.444,101.054 C52.444,101.71667 52.3250012,102.35133 52.087,102.958 C51.8489988,103.56467 51.5223354,104.098998 51.107,104.561 C50.6916646,105.023002 50.1970029,105.391665 49.623,105.667 C49.0489971,105.942335 48.4260034,106.08 47.754,106.08 Z M44.352,101.04 C44.352,101.544003 44.4336659,102.031664 44.597,102.503 C44.7603342,102.974336 44.9913318,103.391998 45.29,103.756 C45.5886682,104.120002 45.9479979,104.409332 46.368,104.624 C46.7880021,104.838668 47.2546641,104.946 47.768,104.946 C48.3000027,104.946 48.7759979,104.831668 49.196,104.603 C49.6160021,104.374332 49.9729985,104.075669 50.267,103.707 C50.5610015,103.338331 50.7849992,102.920669 50.939,102.454 C51.0930008,101.987331 51.17,101.516002 51.17,101.04 C51.17,100.535997 51.0883342,100.048336 50.925,99.577 C50.7616659,99.1056643 50.5283349,98.6903351 50.225,98.331 C49.9216652,97.9716649 49.5623354,97.6846677 49.147,97.47 C48.7316646,97.2553323 48.2720025,97.148 47.768,97.148 C47.2359973,97.148 46.7600021,97.2599989 46.34,97.484 C45.9199979,97.7080011 45.5630015,98.0019982 45.269,98.366 C44.9749985,98.7300018 44.7486675,99.145331 44.59,99.612 C44.4313325,100.078669 44.352,100.554664 44.352,101.04 Z M63.824,103.448 C63.824,103.830669 63.7470008,104.180665 63.593,104.498 C63.4389992,104.815335 63.2290013,105.085999 62.963,105.31 C62.6969987,105.534001 62.3890018,105.706666 62.039,105.828 C61.6889983,105.949334 61.3133353,106.01 60.912,106.01 L56.194,106.01 L56.194,96.07 L61.136,96.07 C61.4813351,96.07 61.7939986,96.1446659 62.074,96.294 C62.3540014,96.4433341 62.591999,96.6369988 62.788,96.875 C62.984001,97.1130012 63.1356661,97.3836651 63.243,97.687 C63.3503339,97.9903348 63.404,98.2959985 63.404,98.604 C63.404,99.0986691 63.2803346,99.5559979 63.033,99.976 C62.7856654,100.396002 62.4333356,100.708666 61.976,100.914 C62.5453362,101.082001 62.995665,101.392331 63.327,101.845 C63.658335,102.297669 63.824,102.831997 63.824,103.448 Z M62.55,103.224 C62.55,102.999999 62.5103337,102.783001 62.431,102.573 C62.3516663,102.362999 62.244334,102.178667 62.109,102.02 C61.973666,101.861333 61.8126676,101.735334 61.626,101.642 C61.4393324,101.548666 61.2340011,101.502 61.01,101.502 L57.454,101.502 L57.454,104.918 L60.912,104.918 C61.1453345,104.918 61.359999,104.871334 61.556,104.778 C61.752001,104.684666 61.9246659,104.561001 62.074,104.407 C62.2233341,104.252999 62.3399996,104.073334 62.424,103.868 C62.5080004,103.662666 62.55,103.448001 62.55,103.224 Z M57.454,97.162 L57.454,100.48 L60.618,100.48 C60.8420011,100.48 61.0473324,100.435667 61.234,100.347 C61.4206676,100.258333 61.581666,100.139334 61.717,99.99 C61.852334,99.8406659 61.9596663,99.6656677 62.039,99.465 C62.1183337,99.2643323 62.158,99.0520011 62.158,98.828 C62.158,98.5946655 62.120667,98.3753344 62.046,98.17 C61.971333,97.9646656 61.8710006,97.7873341 61.745,97.638 C61.6189994,97.4886659 61.4650009,97.3720004 61.283,97.288 C61.1009991,97.2039996 60.9073344,97.162 60.702,97.162 L57.454,97.162 Z M74.336,104.89 L74.336,106.01 L67.588,106.01 L67.588,96.07 L74.21,96.07 L74.21,97.19 L68.848,97.19 L68.848,100.41 L73.51,100.41 L73.51,101.46 L68.848,101.46 L68.848,104.89 L74.336,104.89 Z M79.318,98.422 L79.318,106.01 L78.058,106.01 L78.058,96.07 L79.038,96.07 L85.198,103.812 L85.198,96.084 L86.458,96.084 L86.458,106.01 L85.394,106.01 L79.318,98.422 Z M96.38,106.01 L96.38,96.07 L99.824,96.07 C100.617337,96.07 101.314997,96.2006654 101.917,96.462 C102.519003,96.7233346 103.020665,97.0779978 103.422,97.526 C103.823335,97.9740022 104.124332,98.498997 104.325,99.101 C104.525668,99.703003 104.626,100.344663 104.626,101.026 C104.626,101.782004 104.514001,102.465664 104.29,103.077 C104.065999,103.688336 103.744002,104.210998 103.324,104.645 C102.903998,105.079002 102.39767,105.414999 101.805,105.653 C101.21233,105.891001 100.552004,106.01 99.824,106.01 L96.38,106.01 Z M103.352,101.026 C103.352,100.465997 103.275001,99.9503357 103.121,99.479 C102.966999,99.0076643 102.738335,98.6040017 102.435,98.268 C102.131665,97.9319983 101.760669,97.6683343 101.322,97.477 C100.883331,97.2856657 100.384003,97.19 99.824,97.19 L97.64,97.19 L97.64,104.89 L99.824,104.89 C100.393336,104.89 100.899664,104.792001 101.343,104.596 C101.786336,104.399999 102.154999,104.129335 102.449,103.784 C102.743001,103.438665 102.966999,103.030336 103.121,102.559 C103.275001,102.087664 103.352,101.576669 103.352,101.026 Z M108.404,106.01 L108.404,96.07 L109.664,96.07 L109.664,106.01 L108.404,106.01 Z M121.058,104.666 C120.180662,105.608671 119.172672,106.08 118.034,106.08 C117.37133,106.08 116.757669,105.935335 116.193,105.646 C115.628331,105.356665 115.140669,104.976336 114.73,104.505 C114.319331,104.033664 113.995001,103.49467 113.757,102.888 C113.518999,102.28133 113.4,101.656003 113.4,101.012 C113.4,100.339997 113.516666,99.703003 113.75,99.101 C113.983335,98.498997 114.305331,97.9670023 114.716,97.505 C115.126669,97.0429977 115.616664,96.676668 116.186,96.406 C116.755336,96.135332 117.37133,96 118.034,96 C118.995338,96 119.78633,96.2006647 120.407,96.602 C121.02767,97.0033353 121.501332,97.5259968 121.828,98.17 L120.862,98.842 C120.563332,98.2633304 120.166669,97.8340014 119.672,97.554 C119.177331,97.2739986 118.622003,97.134 118.006,97.134 C117.501997,97.134 117.044669,97.2436656 116.634,97.463 C116.223331,97.6823344 115.873335,97.9716649 115.584,98.331 C115.294665,98.6903351 115.070667,99.1056643 114.912,99.577 C114.753333,100.048336 114.674,100.535997 114.674,101.04 C114.674,101.572003 114.762666,102.073664 114.94,102.545 C115.117334,103.016336 115.359998,103.431665 115.668,103.791 C115.976002,104.150335 116.339998,104.432666 116.76,104.638 C117.180002,104.843334 117.637331,104.946 118.132,104.946 C119.214672,104.946 120.189996,104.423339 121.058,103.378 L121.058,102.006 L118.916,102.006 L118.916,101.054 L122.122,101.054 L122.122,106.01 L121.058,106.01 L121.058,104.666 Z M126.04,106.01 L126.04,96.07 L127.3,96.07 L127.3,106.01 L126.04,106.01 Z M138.848,97.19 L135.418,97.19 L135.418,106.01 L134.158,106.01 L134.158,97.19 L130.728,97.19 L130.728,96.07 L138.848,96.07 L138.848,97.19 Z M144.362,96.07 L145.426,96.07 L149.486,106.01 L148.142,106.01 L146.966,103.098 L142.794,103.098 L141.632,106.01 L140.288,106.01 L144.362,96.07 Z M146.686,102.118 L144.894,97.526 L143.046,102.118 L146.686,102.118 Z M152.816,106.01 L152.816,96.07 L154.076,96.07 L154.076,104.89 L159.62,104.89 L159.62,106.01 L152.816,106.01 Z" id="BYKOBENDIGITAL" fill-rule="nonzero"></path>
            </g>
        </g>
    </g>
</svg>