<svg xmlns="http://www.w3.org/2000/svg" viewBox="0 0 386.41 94.89"><defs><style>.cls-1{fill:#f5c1bc;}.cls-2{fill:#1a264f;}</style></defs><g id="Layer_2" data-name="Layer 2"><g id="Layer_1-2" data-name="Layer 1"><path class="cls-1" d="M62.43.55,7.15,19.16a10.51,10.51,0,0,0-6.6,13.3L19.16,87.74a10.53,10.53,0,0,0,13.3,6.6L87.74,75.73a10.53,10.53,0,0,0,6.6-13.3L75.73,7.15A10.51,10.51,0,0,0,62.43.55ZM59.27,53.31,46,57.78,41.53,44.51l9.95-3.35a3.51,3.51,0,0,1,4.44,2.2l3.35,10ZM53.44,79.89,48.23,64.41,83.61,52.5,87.7,64.66a3.49,3.49,0,0,1-2.2,4.43ZM17.23,60.08l19.9-6.7,9.68,28.74L30.23,87.7a3.51,3.51,0,0,1-4.44-2.2L17.23,60.08ZM26,20.21,34.9,46.74,15,53.44,7.18,30.23a3.52,3.52,0,0,1,2.2-4.44ZM32.6,18,64.66,7.18a3.5,3.5,0,0,1,4.43,2.2L81.38,45.87,65.9,51.08l-3.35-9.95a10.51,10.51,0,0,0-13.3-6.6l-10,3.35L32.6,18Z"/><path class="cls-2" d="M147.88,81.39a49.6,49.6,0,0,1-12.47-1.52,36.68,36.68,0,0,1-10.64-4.56V21l-11-3.8,4-11.72,20.61,7.05V30.93A21.46,21.46,0,0,1,150,27.78q11.93,0,18.06,6.73t6.14,19.86q0,13.35-6.68,20.18T147.88,81.39Zm-.1-11q6.08,0,9.22-4.07t3.15-12q0-7.59-2.61-11.5a8.64,8.64,0,0,0-7.7-3.91q-7.28,0-11.4,3.47V69A27,27,0,0,0,147.78,70.43Z"/><path class="cls-2" d="M226.35,73.14A34.92,34.92,0,0,1,216,79.38a30.06,30.06,0,0,1-10.58,2A30.47,30.47,0,0,1,190.65,78a24.12,24.12,0,0,1-9.71-9.44,27.29,27.29,0,0,1-3.42-13.73,29.66,29.66,0,0,1,3.26-14.21,23.6,23.6,0,0,1,9-9.44,26,26,0,0,1,13.35-3.37,28.38,28.38,0,0,1,13.73,3.15,22.47,22.47,0,0,1,9,8.74,26,26,0,0,1,3.2,13.18c0,.94-.05,2-.16,3.26a31.86,31.86,0,0,1-.49,3.47H190.65a11.54,11.54,0,0,0,2.5,6.18,12.05,12.05,0,0,0,5.26,3.69,19.79,19.79,0,0,0,7,1.2,25.88,25.88,0,0,0,8.79-1.52,27.35,27.35,0,0,0,7.7-4.23Zm-11-22.68a11.34,11.34,0,0,0-3.15-8.3c-2.09-2.13-5-3.2-8.68-3.2a12.86,12.86,0,0,0-8.68,3.2,11.13,11.13,0,0,0-3.9,8.3Z"/><path class="cls-2" d="M231.66,79.22v-11h9.22V43.63l-10.42-3.58L234.05,29l15.3,5.21A45.76,45.76,0,0,1,258,29.52a30,30,0,0,1,11.07-1.74q7.15,0,11.28,2.83a15.66,15.66,0,0,1,5.92,7.59,29.87,29.87,0,0,1,1.79,10.53V68.26h9v11H270v-11h4.45V50.35a13.82,13.82,0,0,0-1.84-7.48c-1.23-2-3.55-2.93-6.95-2.93a17.34,17.34,0,0,0-6.24,1.14,19.32,19.32,0,0,0-4.83,2.55V68.26h4.34v11Z"/><path class="cls-2" d="M321.75,81.39a20.57,20.57,0,0,1-9.88-2.22,14.6,14.6,0,0,1-6.29-6.73,26,26,0,0,1-2.17-11.34V40.91h-9V30h9V21.16l13.24-4.23V30h13v11h-13V58.06c0,3.91.59,6.89,1.79,9a5.81,5.81,0,0,0,5.37,3.09,15.76,15.76,0,0,0,7.05-2.17l2.61,10.2a39.63,39.63,0,0,1-5.65,2.28A19.76,19.76,0,0,1,321.75,81.39Z"/><path class="cls-2" d="M360.15,27.78A29.43,29.43,0,0,1,374.47,31a21,21,0,0,1,8.9,9.22,31.9,31.9,0,0,1,3,14.49q0,12.58-6.84,19.64t-19.42,7a29.08,29.08,0,0,1-14-3.15,20.43,20.43,0,0,1-8.79-9.17,32,32,0,0,1-3-14.37,32.31,32.31,0,0,1,3-14.49A20.74,20.74,0,0,1,346.1,31,28.64,28.64,0,0,1,360.15,27.78ZM360.26,39q-6.19,0-9.34,4T347.78,54.7q0,7.69,3.14,11.72t9.34,4q6.28,0,9.49-4T373,54.7Q373,47,369.75,43T360.26,39Z"/></g></g></svg>